<?xml version="1.0" encoding="utf-8"?>
<!-- Generator: Adobe Illustrator 16.0.0, SVG Export Plug-In . SVG Version: 6.00 Build 0)  -->
<!DOCTYPE svg PUBLIC "-//W3C//DTD SVG 1.1//EN" "http://www.w3.org/Graphics/SVG/1.1/DTD/svg11.dtd">
<svg version="1.1" id="Layer_1" xmlns="http://www.w3.org/2000/svg" xmlns:xlink="http://www.w3.org/1999/xlink" x="0px" y="0px"
	 width="152px" height="32px" viewBox="0 0 152 32" enable-background="new 0 0 152 32" xml:space="preserve">
<path fill="#E51B24" d="M8.87,31.95l9.55-19.26L11.9,0H0.62C0.21,0,0,0.38,0,0.8v30.39C0,31.74,0.22,32,0.71,32l8.12-0.02"/>
<path fill="#5C707C" d="M19.99,29.93c0.34,0.021,0.67,0.04,1,0.08l0.24,0.03c0.33,0.05,0.67,0.09,1,0.14l0.19,0.04
	c0.35,0.061,0.69,0.13,1.03,0.2l0.13,0.04c0.36,0.08,0.71,0.17,1.06,0.271l0.1,0.029c0.36,0.1,0.72,0.211,1.07,0.33l0.08,0.03
	c0.36,0.13,0.71,0.26,1.06,0.399l0.08,0.041c0.32,0.129,0.64,0.26,0.95,0.41L18.42,12.71L8.87,31.97H8.9c0.33-0.149,0.66-0.3,1-0.43
	l0.04-0.021c0.36-0.149,0.72-0.279,1.09-0.41l0.04-0.02c0.36-0.12,0.73-0.23,1.09-0.34l0.08-0.02c0.36-0.101,0.71-0.19,1.08-0.28
	l0.12-0.03c0.34-0.07,0.69-0.141,1.03-0.2l0.19-0.04c0.33-0.05,0.66-0.09,1-0.14l0.24-0.03c0.33-0.04,0.67-0.06,1.01-0.08
	l0.25-0.029c0.43-0.021,0.85-0.03,1.28-0.03s0.86,0.01,1.28,0.03L19.99,29.93z"/>
<path fill="#95A1AA" d="M27.98,31.95l-9.56-19.26L24.95,0h11.38c0.41,0,0.62,0.38,0.62,0.8v30.39c0,0.551-0.22,0.811-0.71,0.811
	l-8.18-0.02L27.98,31.95z"/>
<path fill="#E51B24" d="M118.221,5.01c-1.211,0-2.191,0.94-2.191,2.1c0,1.16,0.761,1.87,1.971,1.87s2-0.74,2-1.9
	S119.43,5.01,118.221,5.01z M76.06,4.97c-1.21,0-2.19,0.95-2.19,2.11S74.85,9,76.06,9c1.209,0,2.2-0.76,2.2-1.92
	S77.27,4.97,76.06,4.97z M119.971,11.03l-3.841-0.01l0.021,13.44c0,1.66,0,1.84-0.08,2.28c-0.141,0.6-0.17,0.85-0.98,0.85h-0.699
	c-0.08-0.02-1.25-0.08-1.381-0.1l0.01,3.33c0.91,0.1,2.17,0.189,2.891,0.16c1.65-0.08,2.55-0.5,3.25-1.36
	c0.65-0.771,0.83-1.851,0.83-3.95L119.971,11.03z M150.221,22.72h0.35c0.18,0,0.38,0.03,0.38,0.25c0,0.261-0.22,0.271-0.45,0.271
	h-0.279V22.72L150.221,22.72z M149.95,24.16h0.271v-0.71h0.279l0.471,0.71h0.289l-0.49-0.73c0.25-0.029,0.451-0.149,0.451-0.449
	c0-0.32-0.201-0.471-0.601-0.471h-0.67V24.16L149.95,24.16z M149.311,23.33c0-0.68,0.529-1.2,1.209-1.2
	c0.69,0,1.211,0.521,1.211,1.2c0,0.689-0.521,1.21-1.211,1.21C149.84,24.54,149.311,24.02,149.311,23.33z M149.04,23.33
	c0,0.811,0.681,1.42,1.479,1.42c0.811,0,1.48-0.609,1.48-1.42c0-0.8-0.67-1.41-1.48-1.41C149.721,21.92,149.04,22.53,149.04,23.33z
	 M140.17,6.06v4.01h-2.08v2.8h2.08v8.71c0,0.72,0.12,1.29,0.37,1.73c0.25,0.439,0.59,0.779,1.01,1.01
	c0.421,0.24,0.921,0.41,1.479,0.49c0.561,0.08,0.841,0.18,1.471,0.18c0.4,0,0.811-0.01,1.23-0.03s0.869-0.17,1.209-0.229V21.7
	c-0.189,0.04-0.39,0.06-0.6,0.09c-0.21,0.021-0.43,0.021-0.66,0.021c-0.68,0-1.13-0.03-1.359-0.24c-0.23-0.23-0.34-0.67-0.34-1.32
	v-7.3h2.99V10.1h-3.011l-0.08-4.03L140.17,6.06z M133.12,16.09c-0.19-0.99-0.53-1.75-1.021-2.26c-0.479-0.52-1.22-0.77-2.209-0.77
	c-0.65,0-1.181,0.11-1.611,0.32c-0.43,0.21-0.77,0.47-1.029,0.78c-0.26,0.31-0.439,0.64-0.54,0.99c-0.11,0.35-0.17,0.66-0.19,0.94
	H133.12z M136.689,15.39c0.271,1,0.36,1.459,0.281,2.56H126.55c0.05,1.27,0.36,2.77,0.97,3.35c0.61,0.56,1.49,0.851,2.631,0.851
	c0.81,0,1.529-0.2,2.109-0.59c0.59-0.391,0.95-0.811,1.09-1.24h3.57c-0.57,1.699-1.449,2.91-2.63,3.64s-2.63,1.021-4.31,1.021
	c-1.15,0-1.721-0.101-2.65-0.461c-0.939-0.35-1.721-0.859-2.37-1.52s-1.14-1.439-1.5-2.359c-0.351-0.921-0.41-1.931-0.41-3.031
	c0-1.06,0.06-2.049,0.431-2.959c0.359-0.92,0.869-1.71,1.529-2.38c0.67-0.67,1.471-1.19,2.391-1.58c0.92-0.38,1.479-0.57,2.6-0.57
	c1.27,0,2.359,0.23,3.29,0.69c0.94,0.48,1.5,1.1,2.101,1.89c0.6,0.78,1.06,1.65,1.33,2.66L136.689,15.39z M108.529,19.38
	c0.111-0.54,0.171-1.12,0.171-1.7c0-0.59-0.06-1.149-0.171-1.689c-0.119-0.54-0.309-1.01-0.59-1.42c-0.27-0.42-0.629-0.75-1.069-1
	c-0.44-0.27-0.99-0.39-1.649-0.39c-0.671,0-1.23,0.12-1.691,0.39c-0.449,0.25-0.819,0.59-1.1,1.01c-0.279,0.42-0.47,0.9-0.6,1.44
	c-0.12,0.541-0.189,1.1-0.189,1.69c0,0.55,0.069,1.101,0.199,1.649c0.141,0.541,0.35,1.031,0.65,1.461
	c0.289,0.43,0.67,0.779,1.109,1.05c0.45,0.271,0.99,0.399,1.621,0.399c0.659,0,1.219-0.129,1.67-0.39
	c0.449-0.25,0.799-0.6,1.069-1.03C108.221,20.42,108.41,19.93,108.529,19.38z M108.98,24.98l0.069-2l-0.11-0.041
	c-0.489,0.771-1.34,1.391-2.1,1.74c-0.779,0.33-1.65,0.5-2.619,0.5c-1.111,0-1.65-0.18-2.49-0.59c-0.83-0.41-1.521-0.97-2.07-1.68
	c-0.54-0.7-0.939-1.51-1.23-2.43c-0.27-0.91-0.41-1.871-0.41-2.851c0-0.96,0.141-1.88,0.41-2.76c0.28-0.89,0.69-1.67,1.23-2.35
	c0.55-0.68,1.22-1.23,2.04-1.64c0.819-0.41,1.34-0.65,2.43-0.65c0.87,0,1.7,0.18,2.49,0.54s1.88,0.92,2.33,1.61h0.069V5.03
	l3.84-0.01v19.96H108.98z M60.33,12.7l0.17-0.2l-0.18,0.18L60.33,12.7z M70.92,15.97v9H67v-8.28c0-1.159-0.19-2.04-0.57-2.609
	c-0.38-0.58-1.28-0.87-2.25-0.87c-1.1,0-2.06,0.32-2.55,0.95c-0.49,0.63-0.74,1.66-0.74,3.109v7.7l-0.04,0.011h-3.8l-0.01-0.271
	V16.98c0-1.17-0.43-2.331-0.81-2.9c-0.38-0.58-1.05-0.87-2.01-0.87c-1.1,0-1.9,0.32-2.39,0.95C51.34,14.79,51,16.09,51,17.54v7.43
	h-3.99V10.05h3.87v2.45h0.08c0.52-0.83,1.18-1.43,2-1.81s1.65-0.56,2.51-0.56c1.08,0,1.96,0.14,2.66,0.42
	c0.69,0.28,1.24,0.68,1.64,1.18c0.22,0.28,0.4,0.6,0.55,0.94c0.51-0.81,1.46-1.61,2.26-1.98c0.82-0.38,1.83-0.56,2.69-0.56
	c1.08,0,2.12,0.14,2.81,0.42c0.69,0.28,1.36,0.68,1.76,1.18c0.4,0.5,0.68,1.12,0.84,1.84C70.85,14.29,70.92,15.09,70.92,15.97z
	 M95.92,24.96v-8.99c0-0.88-0.08-1.68-0.24-2.4c-0.16-0.72-0.439-1.34-0.84-1.84s-0.949-0.9-1.64-1.18
	c-0.69-0.28-2.07-0.42-3.15-0.42c-0.86,0-1.69,0.18-2.51,0.56c-0.81,0.38-1.13,0.98-1.64,1.81h-0.09v-2.44h-3.781v14.92h3.921V17.27
	c0-1.45,0.489-2.5,0.989-3.129c0.49-0.63,1.19-0.93,2.291-0.93c0.97,0,1.869,0.29,2.25,0.87c0.379,0.57,0.569,1.45,0.569,2.609
	v8.271H95.92z M74.05,11.05h3.921v13.92H74.05V11.05z"/>
</svg>
